<svg id="Delivery_Motorcycle" data-name="Delivery Motorcycle" xmlns="http://www.w3.org/2000/svg" width="38" height="38" viewBox="0 0 38 38">
  <path id="Path_10" data-name="Path 10" d="M29.98,23.79l-1.362-9.54c1.227,0,2.3.214,2.858-.855a3.167,3.167,0,0,0,0-6.207,1.583,1.583,0,0,0-1.393-.855H26.125c-.42,0,0,.538-1.67-2.731a.649.649,0,0,0-.158-.2A2.375,2.375,0,0,0,22.167,0H19.792A.792.792,0,0,0,19,.792V3.958a.792.792,0,0,0,.792.792c2.486,0,2.723.071,3.357-.222l1.14,2.28A3.958,3.958,0,0,0,22.246,9.5H19.792a.792.792,0,1,0,0,1.583h2.454a3.958,3.958,0,0,0,1.5,2.375l-1.2,14.313a.792.792,0,0,1-.792.728H17.417c0-7.758.087-7.458-.238-8.146.9-.887-.554-4.52-3.721-4.52h-.792V10.292a.792.792,0,0,0-.792-.792H.792A.792.792,0,0,0,0,10.292v9.5a.792.792,0,0,0,.792.792H4.829A10.292,10.292,0,0,0,0,29.292v3.167a.792.792,0,0,0,.792.792H3.23a5.542,5.542,0,0,0,1.583,3.167H.792A.792.792,0,1,0,.792,38H8.708a5.542,5.542,0,0,0,5.478-4.75H24.605a5.542,5.542,0,0,0,1.583,3.167H22.167a.792.792,0,1,0,0,1.583h7.917a5.542,5.542,0,0,0,5.478-4.75h1.647A.792.792,0,0,0,38,32.458a8.708,8.708,0,0,0-8.02-8.669ZM22.167,3.167H20.583V1.583h1.583a.792.792,0,0,1,0,1.583Zm9.5,8.487V8.93a1.583,1.583,0,0,1,0,2.723ZM24.542,9.5h-.649a2.375,2.375,0,0,1,2.233-1.583h3.958v4.75H26.125a2.375,2.375,0,0,1-2.232-1.583h.649a.792.792,0,0,0,0-1.583ZM15.833,31.667H7.125V29.292a3.167,3.167,0,0,1,3.167-3.167h5.542Zm-2.375-14.25A2.375,2.375,0,0,1,15.7,19H12.667V17.417ZM7.125,11.083v2.676c-.9-.451-.792-.38-1.583,0V11.083ZM1.583,19V11.083H3.958c0,4.125-.174,4.449.53,4.7.42.15.657-.055,1.845-.649,1.33.665,1.378.752,1.75.673.855-.182.625-.744.625-4.75h2.375V19Zm0,10.292a8.708,8.708,0,0,1,8.708-8.708h4.75a.792.792,0,0,1,.792.792v3.167H10.292a4.75,4.75,0,0,0-4.75,4.75v2.375H1.583ZM4.829,33.25H7.347a1.583,1.583,0,0,0,2.723,0h2.517a3.958,3.958,0,0,1-7.758,0Zm12.588-1.583V30.083h4.346a2.375,2.375,0,0,0,2.375-2.177L25.27,14.25h1.75l1.48,10.2-2.913,7.22ZM26.2,33.25h2.517a1.583,1.583,0,0,0,2.723,0h2.517a3.958,3.958,0,0,1-7.758,0ZM27.3,31.667l2.517-6.333a7.125,7.125,0,0,1,6.6,6.333Z"/>
  <path id="Path_11" data-name="Path 11" d="M23.375,46H21.792a.792.792,0,1,0,0,1.583h1.583a.792.792,0,1,0,0-1.583Z" transform="translate(-4.375 -9.583)"/>
</svg>
