<svg xmlns="http://www.w3.org/2000/svg" width="116.875" height="116.875" viewBox="0 0 116.875 116.875">
  <path id="icons8-savouring-delicious-food-face" d="M59.938,2A57.938,57.938,0,1,0,92.582,107.755c.232.008.46.046.694.044a11.962,11.962,0,0,0,8.487-3.488,12.139,12.139,0,0,0,3.5-8.339A57.895,57.895,0,0,0,59.938,2Zm0,5.038a52.848,52.848,0,0,1,44.3,81.746c-1.832-6.055-5.79-11.23-9.328-15.065l.03-.059a2.519,2.519,0,1,0-4.507-2.253A37.915,37.915,0,0,1,81.158,82.52a2.519,2.519,0,0,0-.782.59,32.694,32.694,0,0,1-20.438,7.055c-21.179,0-30.494-18.76-30.494-18.76a2.52,2.52,0,1,0-4.507,2.253S35.774,95.2,59.938,95.2a38.149,38.149,0,0,0,8.571-.959,57.488,57.488,0,0,0,7.163,6.307,41.77,41.77,0,0,0,9.791,5.673A52.882,52.882,0,1,1,59.938,7.038ZM37.266,42.3c-8.413,0-14.322,5.722-14.322,5.722A2.52,2.52,0,1,0,26.4,51.7s4.791-4.354,10.868-4.354S48.135,51.7,48.135,51.7a2.52,2.52,0,1,0,3.454-3.67S45.679,42.3,37.266,42.3Zm45.343,0c-8.413,0-14.322,5.722-14.322,5.722a2.52,2.52,0,0,0,3.454,3.67s4.791-4.354,10.868-4.354S93.472,51.7,93.472,51.7a2.52,2.52,0,1,0,3.454-3.67S91.02,42.3,82.609,42.3Zm9.446,35.788c3.979,4.548,7.869,10.648,8.128,16.762a2.519,2.519,0,0,0,.049.994,6.694,6.694,0,0,1-2.037,4.905,6.493,6.493,0,0,1-4.95,2.007c-.192,0-.4-.035-.59-.044a2.519,2.519,0,0,0-1.014-.069c-4.282-.554-9.123-3.249-12.94-6.12A58.287,58.287,0,0,1,73.935,92.5a38.758,38.758,0,0,0,8.079-4.408l8.89,8.89a2.519,2.519,0,1,0,3.562-3.562l-8.512-8.511A45.159,45.159,0,0,0,92.055,78.092Z" transform="translate(-1.5 -1.5)" fill="#ec7310" stroke="#e0514b" stroke-width="1"/>
</svg>
