<svg xmlns="http://www.w3.org/2000/svg" width="115.167" height="117.664" viewBox="0 0 115.167 117.664">
  <path id="icons8-fried-chicken" d="M28.1,2.033a10.637,10.637,0,0,0-7.784,3.092A10.262,10.262,0,0,0,17.7,10.188,10.262,10.262,0,0,0,12.634,12.8,11.13,11.13,0,0,0,26.161,30.174l3.972,3.972A24.277,24.277,0,0,0,25.721,48.1a24.576,24.576,0,0,0,.17,2.715h-7.88A2.714,2.714,0,0,0,15.158,52.3q-.033.063-.064.127L4.234,76.865A2.716,2.716,0,0,0,9.2,79.071l7.286-16.4,9.826,53.791a2.715,2.715,0,0,0,2.667,2.227H93.056a2.715,2.715,0,0,0,2.667-2.227l9.826-53.791,7.286,16.4a2.716,2.716,0,0,0,4.963-2.206L106.944,52.446l-.005-.016a2.7,2.7,0,0,0-2.911-1.612H96.174A26.684,26.684,0,0,0,93.2,41.024L98.618,35.6a11.132,11.132,0,0,0,13.533-17.372,10.237,10.237,0,0,0-5.064-2.614,10.262,10.262,0,0,0-2.614-5.064,10.637,10.637,0,0,0-7.784-3.092A11.388,11.388,0,0,0,88.867,10.8,11.046,11.046,0,0,0,87.1,24.087l-5.446,5.446a27.295,27.295,0,0,0-19.074-2.4,23.933,23.933,0,0,0-18.963-2.545l-5.934-5.929A11.043,11.043,0,0,0,35.924,5.373,11.388,11.388,0,0,0,28.1,2.033Zm-.064,5.4a5.925,5.925,0,0,1,4.046,1.782,5.574,5.574,0,0,1,.244,7.928,2.715,2.715,0,0,0,0,3.839l5.854,5.849a24.561,24.561,0,0,0-4.449,3.24l-5.244-5.25a2.715,2.715,0,0,0-3.839,0,5.574,5.574,0,0,1-7.928-.249,5.568,5.568,0,0,1-.249-7.922,5.159,5.159,0,0,1,3.569-1.49,2.715,2.715,0,0,0,2.625-2.63,5.142,5.142,0,0,1,1.49-3.563A5.272,5.272,0,0,1,28.038,7.431Zm68.713,5.43a5.272,5.272,0,0,1,3.882,1.533,5.137,5.137,0,0,1,1.485,3.563,2.715,2.715,0,0,0,2.63,2.63,5.142,5.142,0,0,1,3.563,1.485A5.574,5.574,0,0,1,108.063,30a5.574,5.574,0,0,1-7.928.249,2.715,2.715,0,0,0-3.839,0l-6.162,6.162a27.526,27.526,0,0,0-3.845-3.834l6.172-6.167a2.715,2.715,0,0,0,0-3.839,5.574,5.574,0,0,1,.244-7.928A5.925,5.925,0,0,1,96.752,12.861ZM50.156,29.1a18.971,18.971,0,0,1,5.292.769,27.463,27.463,0,0,0-4.322,2.959,2.715,2.715,0,1,0,3.489,4.157A22.094,22.094,0,0,1,90.7,50.818H31.358a18.929,18.929,0,0,1,18.8-21.72ZM22.651,56.248h70.49a2.715,2.715,0,0,0,.886,0h5.356L86.714,75.253H35.319Zm-.042,9.725,9,13.5a2.715,2.715,0,0,0,2.259,1.209h54.3a2.715,2.715,0,0,0,2.259-1.209l9-13.5-8.633,47.29H31.241Z" transform="translate(-3.49 -1.53)" fill="#ec7310" stroke="#fff" stroke-width="1"/>
</svg>
