<svg xmlns="http://www.w3.org/2000/svg" width="84.774" height="131.489" viewBox="0 0 84.774 131.489">
  <path id="icons8-wrap" d="M50.766,0C24.576,0,9.315,17.545,9.009,35.966a2.672,2.672,0,0,0,0,.571v.245c.031,9.022,2.182,28.483,4.322,46.079,2.151,17.7,4.312,33.2,4.322,33.275v.082A14.937,14.937,0,0,0,29.888,129.1l.082.082c2.008.336,6.28.551,11.01.816s9.654.489,12.4.489a2.725,2.725,0,0,0,.489-.082l.082.082h.571c6.82-.265,13.763-.765,17.861-1.631.031-.01.051.01.082,0A14.751,14.751,0,0,0,84.122,116.3c.01-.051-.01-.112,0-.163.051-.285,8.645-53,8.645-79.6a2.587,2.587,0,0,0-.245-1.142c-.163-6.535-1.866-15.037-7.666-22.183C78.729,5.658,68.025,0,50.766,0Zm0,5.22c16.148,0,25.007,5.067,30.094,11.336A26.843,26.843,0,0,1,85.183,24.3v.082a7.767,7.767,0,0,1-2.936,6.851c-.051-.183-.1-.306-.163-.489a18.269,18.269,0,0,0-2.936-5.627A16.064,16.064,0,0,0,67.4,19.247a24.805,24.805,0,0,0-4.975.245,22.721,22.721,0,0,0-9.134-5.79,24.779,24.779,0,0,0-6.606-1.223,15.335,15.335,0,0,0-2.773.082,2.611,2.611,0,0,0-1.957,3.752s.459,1.132.979,2.773c-13.946.377-21.459,11.071-24.141,15.9-.031-.02-.051-.061-.082-.082-2.253-1.58-3.334-3.16-3.425-5.546a2.725,2.725,0,0,0-.082-.489C18.572,16.056,30.54,5.22,50.766,5.22ZM48.075,18.187a8.618,8.618,0,0,1,3.588.489c3.945,1.315,8.4,4.119,11.255,11.255a2.635,2.635,0,1,0,4.893-1.957A29.514,29.514,0,0,0,66.1,24.467c4.781-.02,7.238,1.8,8.89,3.915a13.4,13.4,0,0,1,2.12,4,12.422,12.422,0,0,1,.408,1.713,54.162,54.162,0,0,1-6.769,2.284c-4.322,1.193-9.042,2.233-13.294,3.67-4.078,1.376-7.9,3.181-10.358,6.361-5.087-3.884-12.529-5.352-19-7.422-1.652-.53-3.2-1.05-4.649-1.631,2.222-4.088,8.5-13.253,20.634-13.049a31.466,31.466,0,0,1,.163,6.524,2.618,2.618,0,1,0,5.22.408A33.429,33.429,0,0,0,48.075,18.187ZM36.168,30.747a2.61,2.61,0,0,0-.245,5.138,11.23,11.23,0,0,1,4.486,3.1,2.61,2.61,0,1,0,4-3.344,15.434,15.434,0,0,0-6.932-4.73,2.524,2.524,0,0,0-.816-.163A1.965,1.965,0,0,0,36.168,30.747ZM87.14,33.764c.071.958.163,1.9.163,2.773a2.731,2.731,0,0,0,.245,1.06c-.214,25.894-8.563,77.886-8.563,77.886v.082A9.674,9.674,0,0,1,71.4,123.72l-.082.082c-3.089.663-9.827,1.111-16.311,1.386-4.914-2.08-8.777-6.851-11.418-13.294a60.945,60.945,0,0,1-4.078-22.346c0-19.8,6.372-32.531,11.581-39.718v-.082c1.346-1.906,4.159-3.436,7.992-4.73s8.523-2.335,13.049-3.588,8.961-2.691,12.478-5.3A15.024,15.024,0,0,0,87.14,33.764ZM14.229,38A17.675,17.675,0,0,0,15.7,39.147a23.282,23.282,0,0,0,2.773,1.631,2.645,2.645,0,0,0,.734.326,54.551,54.551,0,0,0,7.258,2.854c6.83,2.192,14.058,4.17,17.7,6.769-5.005,8.308-9.868,21.031-9.868,38.821a65.865,65.865,0,0,0,4.486,24.385,35.169,35.169,0,0,0,6.932,11.092c-1.488-.071-2.977-.163-4.486-.245-4.669-.255-9.236-.632-10.358-.816v.082a9.879,9.879,0,0,1-8.074-8.4v-.163S20.7,99.977,18.551,82.29C16.513,65.51,14.433,46.762,14.229,38Zm41.757,24.63a5.22,5.22,0,1,0,5.22,5.22A5.217,5.217,0,0,0,55.986,62.635Zm7.829,15.659a2.61,2.61,0,1,0,2.61,2.61A2.615,2.615,0,0,0,63.815,78.294Z" transform="translate(-8.494 0.5)" fill="#ec7310" stroke="#fff" stroke-width="1"/>
</svg>
