<svg xmlns="http://www.w3.org/2000/svg" width="137.771" height="86.392" viewBox="0 0 137.771 86.392">
  <path id="icons8-card-payment" d="M51.441,19a9.475,9.475,0,0,0-7.494,3.743,17.032,17.032,0,0,0-4.4-1.571,13.461,13.461,0,0,0-5.752.111c-3.877.912-7.746,3.38-12.446,7.272C16.031,32.965,4.683,42.431,4.683,42.431a1.9,1.9,0,0,0,2.431,2.921S18.47,35.878,23.777,31.483c4.507-3.736,7.983-5.819,10.9-6.516a10.269,10.269,0,0,1,7.6,1.216,9.154,9.154,0,0,0-.319,2.305V67.3L36.8,69.731a1.9,1.9,0,1,0,1.623,3.432L71.958,57.337l-.941-.941a1.91,1.91,0,0,0,2.179.371c1.594-.778,3.388-1.712,4.811-1.712a7.554,7.554,0,0,1,4.707,13.491,1.906,1.906,0,0,0-.378,2.565l-1.053-1.371L50.1,93.77a31.867,31.867,0,0,1-19.443,6.619H7.8a1.9,1.9,0,1,0,0,3.8h22.86a35.662,35.662,0,0,0,19.258-5.656,10.419,10.419,0,0,0,8.169,3.966c3.247,0,5.715-2.09,7.427-3.921.133-.148.089-.148.222-.3a10.425,10.425,0,0,0,9.429,6.115,9.309,9.309,0,0,0,7.324-3.617,12.831,12.831,0,0,0,1.431-2.965,9.913,9.913,0,0,0,7.309,2.787,10.583,10.583,0,0,0,7.264-2.869,15.52,15.52,0,0,0,4.107-7.027l.015-.03,2-7.153H131.14a9.516,9.516,0,0,0,9.488-9.488V28.488A9.516,9.516,0,0,0,131.14,19Zm0,3.8h79.7a5.666,5.666,0,0,1,5.693,5.693v3.8H45.748v-3.8A5.666,5.666,0,0,1,51.441,22.8ZM45.748,39.874h91.085V74.03a5.666,5.666,0,0,1-5.693,5.693H74.545L85.1,71.592a1.867,1.867,0,0,0,.63-.875,11.154,11.154,0,0,0,3.662-8.072A11.417,11.417,0,0,0,78.007,51.259c-2.772,0-5,1.364-6.367,2.038a.454.454,0,0,1-.089.037l-25.8,12.179Zm9.488,3.8a1.9,1.9,0,1,0,1.9,1.9A1.9,1.9,0,0,0,55.236,43.669Zm7.59,0a1.9,1.9,0,1,0,1.9,1.9A1.9,1.9,0,0,0,62.826,43.669Zm7.59,0a1.9,1.9,0,1,0,1.9,1.9A1.9,1.9,0,0,0,70.417,43.669Zm7.59,0a1.9,1.9,0,1,0,1.9,1.9A1.9,1.9,0,0,0,78.007,43.669ZM72.314,60.747a1.9,1.9,0,1,0,1.9,1.9A1.9,1.9,0,0,0,72.314,60.747Zm3.8,5.693a1.9,1.9,0,1,0,1.9,1.9A1.9,1.9,0,0,0,76.109,66.44ZM69.616,83.518h31.051l-1.7,6.108a11.943,11.943,0,0,1-3.061,5.33A6.52,6.52,0,0,1,91.224,96.8c-2.78,0-4.04-.912-4.788-1.749a3.559,3.559,0,0,1-.882-1.5l-3.669-.126A15.356,15.356,0,0,1,79.519,98.4a5.119,5.119,0,0,1-4.359,2.194,6.612,6.612,0,0,1-6.642-6.642l-3.543-.949a18.8,18.8,0,0,1-2.246,2.972c-1.379,1.49-3.18,2.72-4.648,2.72A6.584,6.584,0,0,1,53,96.32Zm-1.1,1.9a1.9,1.9,0,1,0,1.9,1.9A1.9,1.9,0,0,0,68.519,85.416Zm17.078,0a1.9,1.9,0,1,0,1.9,1.9A1.9,1.9,0,0,0,85.6,85.416Z" transform="translate(-3.357 -18.5)" fill="#ec7310" stroke="#e0514b" stroke-width="1"/>
</svg>
